<svg width="25" height="20" viewBox="0 0 25 20" fill="none" xmlns="http://www.w3.org/2000/svg">
<path d="M13.2812 2.59375V5.13281H8.59375C7.27539 5.13281 6.25 6.20703 6.25 7.47656V11.8223C6.25 13.0918 7.27539 14.166 8.59375 14.166H13.2812V16.6562C13.2812 18.7559 15.7715 19.7812 17.2363 18.3164L24.2676 11.2852C25.1953 10.4062 25.1953 8.89258 24.2676 7.96484L17.2363 0.933594C15.7715 -0.53125 13.2812 0.542969 13.2812 2.59375ZM22.6562 9.625L15.625 16.6562V11.8223H8.59375V7.47656H15.625V2.59375L22.6562 9.625ZM4.6875 0.25C2.09961 0.25 0 2.34961 0 4.9375V14.3125C0 16.9004 2.09961 19 4.6875 19H8.78906C9.08203 19 9.375 18.7559 9.375 18.4141V17.2422C9.375 16.9492 9.08203 16.6562 8.78906 16.6562H4.6875C3.36914 16.6562 2.34375 15.6309 2.34375 14.3125V4.9375C2.34375 3.66797 3.36914 2.59375 4.6875 2.59375H8.78906C9.08203 2.59375 9.375 2.34961 9.375 2.00781V0.835938C9.375 0.542969 9.08203 0.25 8.78906 0.25H4.6875Z" fill="white"/>
</svg>
