<svg width="48" height="48" viewBox="0 0 48 48" fill="none" xmlns="http://www.w3.org/2000/svg">
<path fill-rule="evenodd" clip-rule="evenodd" d="M0.200036 8H28.7002V14.6H17.5002V43H9.4002V14.6H0V38C0 43.5228 4.47715 48 10 48H38C43.5228 48 48 43.5229 48 38V10C48 4.47715 43.5229 0 38 0H10C5.16208 0 1.12658 3.43552 0.200036 8ZM32.4002 28.16V43H29.4202V41.76C28.6469 42.6933 27.5269 43.16 26.0602 43.16C25.0469 43.16 24.1269 42.9333 23.3002 42.48C22.4869 42.0267 21.8469 41.38 21.3802 40.54C20.9135 39.7 20.6802 38.7267 20.6802 37.62C20.6802 36.5133 20.9135 35.54 21.3802 34.7C21.8469 33.86 22.4869 33.2133 23.3002 32.76C24.1269 32.3067 25.0469 32.08 26.0602 32.08C27.4335 32.08 28.5069 32.5133 29.2802 33.38V28.16H32.4002ZM26.6002 40.6C27.3869 40.6 28.0402 40.3333 28.5602 39.8C29.0802 39.2533 29.3402 38.5267 29.3402 37.62C29.3402 36.7133 29.0802 35.9933 28.5602 35.46C28.0402 34.9133 27.3869 34.64 26.6002 34.64C25.8002 34.64 25.1402 34.9133 24.6202 35.46C24.1002 35.9933 23.8402 36.7133 23.8402 37.62C23.8402 38.5267 24.1002 39.2533 24.6202 39.8C25.1402 40.3333 25.8002 40.6 26.6002 40.6ZM40.4079 43.16C39.2745 43.16 38.2545 42.9267 37.3479 42.46C36.4545 41.98 35.7545 41.32 35.2479 40.48C34.7412 39.64 34.4879 38.6867 34.4879 37.62C34.4879 36.5533 34.7412 35.6 35.2479 34.76C35.7545 33.92 36.4545 33.2667 37.3479 32.8C38.2545 32.32 39.2745 32.08 40.4079 32.08C41.5412 32.08 42.5545 32.32 43.4479 32.8C44.3412 33.2667 45.0412 33.92 45.5479 34.76C46.0545 35.6 46.3078 36.5533 46.3078 37.62C46.3078 38.6867 46.0545 39.64 45.5479 40.48C45.0412 41.32 44.3412 41.98 43.4479 42.46C42.5545 42.9267 41.5412 43.16 40.4079 43.16ZM40.4079 40.6C41.2079 40.6 41.8612 40.3333 42.3679 39.8C42.8879 39.2533 43.1479 38.5267 43.1479 37.62C43.1479 36.7133 42.8879 35.9933 42.3679 35.46C41.8612 34.9133 41.2079 34.64 40.4079 34.64C39.6078 34.64 38.9478 34.9133 38.4279 35.46C37.9079 35.9933 37.6479 36.7133 37.6479 37.62C37.6479 38.5267 37.9079 39.2533 38.4279 39.8C38.9478 40.3333 39.6078 40.6 40.4079 40.6Z" fill="white"/>
</svg>
