<svg width="27" height="32" viewBox="0 0 27 32" fill="none" xmlns="http://www.w3.org/2000/svg">
<path d="M24.1071 4.45881H21.2143V1.29172C21.2143 0.888098 20.8905 0.560852 20.4911 0.560852H18.0804C17.681 0.560852 17.3571 0.888098 17.3571 1.29172V4.45881H9.64286V1.29172C9.64286 0.888098 9.31904 0.560852 8.91964 0.560852H6.50893C6.10953 0.560852 5.78571 0.888098 5.78571 1.29172V4.45881H2.89286C1.29516 4.45881 0 5.76767 0 7.38228V28.8211C0 30.4357 1.29516 31.7445 2.89286 31.7445H24.1071C25.7048 31.7445 27 30.4357 27 28.8211V7.38228C27 5.76767 25.7048 4.45881 24.1071 4.45881ZM23.7455 28.8211H3.25446C3.15856 28.8211 3.06658 28.7826 2.99877 28.714C2.93095 28.6455 2.89286 28.5525 2.89286 28.4556V10.3057H24.1071V28.4556C24.1071 28.5525 24.069 28.6455 24.0012 28.714C23.9334 28.7826 23.8414 28.8211 23.7455 28.8211ZM20.5604 16.6003L11.9838 25.1983C11.7002 25.4826 11.2423 25.4807 10.961 25.1942L6.4354 20.5837C6.15413 20.2971 6.15594 19.8344 6.4395 19.5501L7.80873 18.1775C8.09229 17.8932 8.5502 17.8951 8.83147 18.1817L11.4895 20.8896L18.1836 14.179C18.4672 13.8947 18.9251 13.8966 19.2064 14.1831L20.5646 15.5668C20.8459 15.8533 20.844 16.3161 20.5604 16.6003Z" fill="#DC4C3F"/>
</svg>
